<?xml version="1.0" encoding="utf-8"?>
<!DOCTYPE svg PUBLIC "-//W3C//DTD SVG 1.1//EN" "http://www.w3.org/Graphics/SVG/1.1/DTD/svg11.dtd">
<svg version="1.1" xmlns="http://www.w3.org/2000/svg" xmlns:xlink="http://www.w3.org/1999/xlink" x="0px" y="0px" width="2048px" height="2048px" viewBox="0 0 1024 1024" enable-background="new 0 0 1024 1024" xml:space="preserve">
<metadata> Free Icon Download -- www.onlinewebfonts.com </metadata>

  <path d="M524.664311 0c-266.553592 0-482.449941 215.896349-482.449941 482.449941s215.896349 482.449941 482.449941 482.449941 482.449941-215.896349 482.449941-482.449941S790.011779 0 524.664311 0zM524.664311 909.418139c-235.194346 0-426.968198-191.773852-426.968198-426.968198S289.469965 55.481743 524.664311 55.481743s426.968198 191.773852 426.968198 426.968198S759.858657 909.418139 524.664311 909.418139z" />
<path d="M308.767962 664.574794l398.021201-398.021201c9.648999-9.648999 25.328622-9.648999 33.771496 0l0 0c9.648999 9.648999 9.648999 25.328622 0 33.771496L342.539458 698.34629c-9.648999 9.648999-25.328622 9.648999-33.771496 0l0 0C299.118963 688.697291 299.118963 674.223793 308.767962 664.574794z" />
<path d="M342.539458 266.553592l398.021201 398.021201c9.648999 9.648999 9.648999 25.328622 0 33.771496l0 0c-9.648999 9.648999-25.328622 9.648999-33.771496 0l-398.021201-398.021201c-9.648999-9.648999-9.648999-25.328622 0-33.771496l0 0C318.416961 256.904594 332.890459 256.904594 342.539458 266.553592z" />


</svg>