<?xml version="1.0" encoding="utf-8"?>
<!-- Generator: Adobe Illustrator 15.0.0, SVG Export Plug-In . SVG Version: 6.00 Build 0)  -->
<!DOCTYPE svg PUBLIC "-//W3C//DTD SVG 1.1//EN" "http://www.w3.org/Graphics/SVG/1.1/DTD/svg11.dtd">
<svg version="1.1" id="Layer_1" xmlns="http://www.w3.org/2000/svg" xmlns:xlink="http://www.w3.org/1999/xlink" x="0px" y="0px"
	 width="4000px" height="4000px" viewBox="0 0 400 400" enable-background="new 0 0 400 400" xml:space="preserve">
<g>
	<path fill="#565A5C" d="M2.139,5.072c2.425-3.227,6.838-5.634,10.912-4.324c2.719,0.713,4.823,2.772,6.793,4.671
		C41.159,26.904,62.76,48.112,83.915,69.749c26.887,26.887,53.765,53.773,80.661,80.652c11.482,11.955,23.366,23.517,35.044,35.285
		C260.123,125.171,320.637,64.667,381.141,4.163c3.289-3.379,8.871-5.295,12.988-2.202c5.447,2.684,7.115,10.93,2.586,15.173
		c-60.941,60.933-121.883,121.874-182.815,182.816c60.175,60.21,120.376,120.393,180.569,180.585
		c2.684,2.559,5.928,5.555,5.491,9.646c-0.82,3.682-3.575,6.784-6.811,8.603c-4.146,2.086-8.96-0.054-12.035-3.049
		c-25.113-25.122-50.199-50.279-75.473-75.249c-35.258-35.348-70.641-70.569-105.996-105.81
		C139.239,275.064,78.851,335.453,18.462,395.859c-3.201,3.183-8.522,5.179-12.632,2.505c-2.969-2.006-5.554-5.207-5.83-8.88
		c-0.018-3.646,2.683-6.4,5.072-8.816c41.106-40.928,81.847-82.202,122.943-123.147c19.22-19.069,38.11-38.477,57.313-57.571
		c-13.372-13.32-26.673-26.709-39.912-40.162c-25.273-25.265-50.538-50.529-75.802-75.793C47.56,61.476,25.077,39.385,2.87,17.008
		C-0.196,13.871-0.286,8.611,2.139,5.072L2.139,5.072z"/>
</g>
</svg>
